<?xml version="1.0" encoding="UTF-8" standalone="no"?>
<svg
   height="48"
   viewBox="0 0 48 48"
   width="48"
   version="1.1"
   id="svg1"
   sodipodi:docname="camera-shutter-symbolic.svg"
   inkscape:version="1.4.2 (ebf0e940d0, 2025-05-08)"
   xmlns:inkscape="http://www.inkscape.org/namespaces/inkscape"
   xmlns:sodipodi="http://sodipodi.sourceforge.net/DTD/sodipodi-0.dtd"
   xmlns="http://www.w3.org/2000/svg"
   xmlns:svg="http://www.w3.org/2000/svg">
  <defs
     id="defs1" />
  <sodipodi:namedview
     id="namedview1"
     pagecolor="#ffffff"
     bordercolor="#000000"
     borderopacity="0.25"
     inkscape:showpageshadow="2"
     inkscape:pageopacity="0.0"
     inkscape:pagecheckerboard="0"
     inkscape:deskcolor="#d1d1d1"
     inkscape:zoom="7.84375"
     inkscape:cx="28.430279"
     inkscape:cy="27.920319"
     inkscape:window-width="1576"
     inkscape:window-height="691"
     inkscape:window-x="0"
     inkscape:window-y="0"
     inkscape:window-maximized="1"
     inkscape:current-layer="svg1" />
  <path
     d="m 24,3.4422311 c -5.390391,0 -10.559948,2.118013 -14.4044922,5.8922909 L 16.581937,21.430279 26.840747,3.6630665 C 25.897176,3.5225349 24.953608,3.452269 24,3.4422311 Z M 29.490772,4.2151544 22.51438,16.290837 H 43.042034 C 40.642958,10.378471 35.634011,5.9115738 29.490772,4.2151544 Z M 7.8087498,11.372231 C 4.9880775,14.975861 3.4522689,19.422684 3.4422309,24 c 0,1.736569 0.2308735,3.4631 0.6625049,5.139442 H 18.067557 Z M 29.932443,18.860558 40.19125,36.627769 C 43.011922,33.024138 44.547732,28.577316 44.557769,24 44.547729,22.263431 44.326895,20.5369 43.885224,18.860558 Z m 1.48562,7.709163 -10.25881,17.767211 c 0.943571,0.140533 1.887139,0.2108 2.840747,0.220837 5.390391,0 10.559948,-2.118013 14.394452,-5.902328 z M 4.9479282,31.709163 C 7.3470018,37.621529 12.355951,42.088426 18.509228,43.784846 L 25.48562,31.709163 Z m 0,0"
     fill="#ffffff"
     id="path1"
     style="fill:#ffffff;stroke-width:2.56972" />
</svg>
