<?xml version="1.0" encoding="UTF-8" standalone="no"?>
<svg
   height="41.11554"
   viewBox="0 0 41.11554 41.11554"
   width="41.11554"
   version="1.1"
   id="svg1"
   xmlns="http://www.w3.org/2000/svg"
   xmlns:svg="http://www.w3.org/2000/svg">
  <defs
     id="defs1" />
  <path
     d="M 20.557769,-4.067468e-8 C 15.167378,-4.067468e-8 9.9978211,2.1180129 6.1532769,5.8922908 L 13.139706,17.988048 23.398516,0.22083536 C 22.454945,0.08030376 21.511377,0.01003786 20.557769,-4.067468e-8 Z M 26.048541,0.77292326 19.072149,12.848606 H 39.599803 C 37.200727,6.9362398 32.19178,2.4693426 26.048541,0.77292326 Z M 4.3665189,7.9299998 C 1.5458466,11.53363 0.010038,15.980453 0,20.557769 c 0,1.736569 0.2308735,3.4631 0.6625049,5.139442 H 14.625326 Z M 26.490212,15.418327 36.749019,33.185538 c 2.820672,-3.603631 4.356482,-8.050453 4.366519,-12.627769 -0.01004,-1.736569 -0.230874,-3.4631 -0.672545,-5.139442 z m 1.48562,7.709163 -10.25881,17.767211 c 0.943571,0.140533 1.887139,0.2108 2.840747,0.220837 5.390391,0 10.559948,-2.118013 14.394452,-5.902328 z M 1.5056973,28.266932 c 2.3990736,5.912366 7.4080228,10.379263 13.5612997,12.075683 l 6.976392,-12.075683 z m 0,0"
     fill="#ffffff"
     id="path1"
     style="fill:#ffffff;fill-opacity:1;stroke-width:2.56972" />
</svg>
